<svg xmlns="http://www.w3.org/2000/svg" xmlns:svgjs="http://svgjs.com/svgjs" xmlns:xlink="http://www.w3.org/1999/xlink" width="288" height="288"><svg xmlns="http://www.w3.org/2000/svg" width="288" height="288" version="1.0" viewBox="0 0 135 36"><g fill="#1bff00" class="color000 svgShape" transform="matrix(.1 0 0 -.1 0 36)"><path d="M283 290c1-11 5-20 9-20 4 0 8 9 8 20 0 11-4 20-9 20-6 0-9-9-8-20zM225 280c-3-5-1-10 4-10 6 0 11 5 11 10 0 6-2 10-4 10-3 0-8-4-11-10zM643 263c-9-3-13-32-13-93 0-90-8-112-30-85-7 8-19 15-27 15-24 0-10-33 20-50 27-14 29-14 48 9 16 19 19 39 19 117 0 52-1 94-2 93-2 0-9-3-15-6zM342 239c44-23 58-45 58-91 0-44-22-74-64-88-59-19-108 14-125 86l-9 39-1-38c-1-52 50-107 100-107 36 0 99 32 99 51 0 6 25-4 56-21 30-18 58-30 61-27 13 14-8 33-53 50-49 17-49 17-49 63 0 39-5 50-33 75-18 16-42 29-55 29-18-1-15-4 15-21zM180 234c0-8 5-12 10-9 6 3 10 10 10 16 0 5-4 9-10 9-5 0-10-7-10-16zM240 240c-8-5-12-11-9-14 2-3 11-1 19 4 8 5 12 11 9 14-2 3-11 1-19-4zM994 227c-7-19 0-152 9-154 21-8 27 0 27 32 0 28 4 35 19 35 10 0 24 7 31 15 11 13 8 15-19 15-24 0-31 4-31 20 0 15 7 20 29 20 16 0 34 7 41 15 11 13 5 15-44 15-37 0-58-4-62-13zM1120 214c0-22 2-25 15-14 8 7 15 19 15 26 0 8-7 14-15 14-10 0-15-10-15-26z" class="color000 svgShape"/><path d="M846 212c-7-12-11-160-4-168 4-3 13-2 20 2 7 5 33 16 57 24 82 28 79 73-5 86-43 6-45 7-39 35 5 22 3 29-9 29-8 0-17-4-20-8zm92-97c11-10-13-25-39-25-28 0-39 17-22 34 7 6 53 0 61-9zM155 180c-3-5-1-10 4-10 6 0 11 5 11 10 0 6-2 10-4 10-3 0-8-4-11-10zM351 174c0-11 3-14 6-6 3 7 2 16-1 19-3 4-6-2-5-13zM295 171c-6-11 9-23 19-14 9 9 7 23-3 23-6 0-12-4-16-9zM1120 110c0-49 3-58 15-54 11 5 15 21 15 60 0 41-4 54-15 54-12 0-15-13-15-60zM713 140c-37-22-43-54-14-70 31-16 66-12 95 11 31 24 34 54 7 69-29 15-52 12-88-10zm70-17c13-12-15-33-44-33-30 0-41 23-16 33 18 8 53 8 60 0zM240 131c0-11 5-23 10-26 6-3 10 3 10 14 0 11-4 23-10 26-5 3-10-3-10-14zM360 125c0-14 2-25 4-25 2 0 6 11 8 25 3 14 1 25-3 25-5 0-9-11-9-25zM280 118c0-32 15-52 34-45 11 4 16 18 15 39-1 18-3 25-6 16-5-22-23-24-23-3 0 8-4 15-10 15-5 0-10-10-10-22z" class="color000 svgShape"/></g></svg></svg>